<svg width="920" height="280" viewBox="0 0 920 280" fill="none" xmlns="http://www.w3.org/2000/svg">
  <rect width="920" height="280" rx="36" fill="#111111"/>
  <rect x="34" y="34" width="212" height="212" rx="32" fill="#FFFFFF"/>
  <path d="M86 84H196V116H124V138H184V170H124V198H86V84Z" fill="#111111"/>
  <path d="M340 104H470V132H376V152H456V180H376V206H340V104Z" fill="#FFFFFF"/>
  <path d="M492 104H532V178C532 196 542 205 560 205C578 205 588 196 588 178V104H628V182C628 223 600 241 560 241C520 241 492 223 492 182V104Z" fill="#FFFFFF"/>
  <path d="M656 104H735C776 104 800 124 800 158C800 184 785 202 760 208L810 240H754L711 212H692V240H656V104ZM692 136V182H730C751 182 764 173 764 159C764 144 751 136 730 136H692Z" fill="#FFFFFF"/>
  <text x="340" y="72" fill="#FFFFFF" font-size="20" font-family="'Space Grotesk', sans-serif" letter-spacing="0.28em">FABRIC PROTOCOL</text>
</svg>